<mxfile host="65bd71144e" scale="1" border="6">
    <diagram id="HoC1XLrItogTreaPbIvh" name="Page-1">
        <mxGraphModel dx="713" dy="761" grid="1" gridSize="10" guides="1" tooltips="1" connect="1" arrows="1" fold="1" page="1" pageScale="1" pageWidth="827" pageHeight="1169" background="#ffffff" math="0" shadow="0">
            <root>
                <mxCell id="0"/>
                <mxCell id="1" parent="0"/>
                <mxCell id="4" value="Office/ATM" style="shape=mxgraph.signs.travel.bank;html=1;pointerEvents=1;fillColor=#000000;strokeColor=none;verticalLabelPosition=bottom;verticalAlign=top;align=center;" parent="1" vertex="1">
                    <mxGeometry x="159.5" y="350" width="99" height="86" as="geometry"/>
                </mxCell>
                <mxCell id="8" style="edgeStyle=elbowEdgeStyle;html=1;entryX=0;entryY=0.5;entryDx=0;entryDy=0;" parent="1" source="6" target="7" edge="1">
                    <mxGeometry relative="1" as="geometry"/>
                </mxCell>
                <mxCell id="9" value="Get ATMs&lt;br&gt;Get Offices&lt;br&gt;by filters&lt;br&gt;with prediction" style="edgeLabel;html=1;align=center;verticalAlign=middle;resizable=0;points=[];" parent="8" vertex="1" connectable="0">
                    <mxGeometry x="0.1508" y="2" relative="1" as="geometry">
                        <mxPoint y="-23" as="offset"/>
                    </mxGeometry>
                </mxCell>
                <mxCell id="6" value="&lt;br&gt;&lt;br&gt;&lt;br&gt;&lt;br&gt;&lt;br&gt;&lt;br&gt;Customer" style="shape=actor;whiteSpace=wrap;html=1;" parent="1" vertex="1">
                    <mxGeometry x="189" y="180" width="40" height="60" as="geometry"/>
                </mxCell>
                <mxCell id="7" value="System" style="swimlane;whiteSpace=wrap;html=1;" parent="1" vertex="1">
                    <mxGeometry x="390" y="150" width="312" height="300" as="geometry"/>
                </mxCell>
                <mxCell id="2" value="Database" style="aspect=fixed;html=1;points=[];align=center;image;fontSize=12;image=img/lib/azure2/databases/Azure_Database_PostgreSQL_Server.svg;" parent="7" vertex="1">
                    <mxGeometry x="242" y="118" width="48" height="64" as="geometry"/>
                </mxCell>
                <mxCell id="15" style="edgeStyle=elbowEdgeStyle;html=1;entryX=0.009;entryY=0.477;entryDx=0;entryDy=0;entryPerimeter=0;" parent="7" source="3" target="2" edge="1">
                    <mxGeometry relative="1" as="geometry">
                        <Array as="points">
                            <mxPoint x="160" y="81"/>
                        </Array>
                    </mxGeometry>
                </mxCell>
                <mxCell id="16" value="Fetch and filter&amp;nbsp;&lt;br&gt;ATMs, Offices" style="edgeLabel;html=1;align=center;verticalAlign=middle;resizable=0;points=[];" parent="15" vertex="1" connectable="0">
                    <mxGeometry x="-0.1254" y="1" relative="1" as="geometry">
                        <mxPoint x="-5" y="11" as="offset"/>
                    </mxGeometry>
                </mxCell>
                <mxCell id="3" value="" style="sketch=0;aspect=fixed;html=1;points=[];align=center;image;fontSize=12;image=img/lib/mscae/Docker.svg;" parent="7" vertex="1">
                    <mxGeometry x="41" y="60" width="50" height="41" as="geometry"/>
                </mxCell>
                <mxCell id="13" style="edgeStyle=elbowEdgeStyle;html=1;" parent="7" source="10" target="2" edge="1">
                    <mxGeometry relative="1" as="geometry">
                        <Array as="points">
                            <mxPoint x="160" y="160"/>
                            <mxPoint x="130" y="180"/>
                            <mxPoint x="160" y="200"/>
                            <mxPoint x="210" y="160"/>
                            <mxPoint x="170" y="210"/>
                        </Array>
                    </mxGeometry>
                </mxCell>
                <mxCell id="14" value="Refresh ATM/Office data&lt;br&gt;Add prediction" style="edgeLabel;html=1;align=center;verticalAlign=middle;resizable=0;points=[];" parent="13" vertex="1" connectable="0">
                    <mxGeometry x="0.002" y="4" relative="1" as="geometry">
                        <mxPoint x="14" y="12" as="offset"/>
                    </mxGeometry>
                </mxCell>
                <mxCell id="10" value="" style="sketch=0;aspect=fixed;html=1;points=[];align=center;image;fontSize=12;image=img/lib/mscae/Docker.svg;" parent="7" vertex="1">
                    <mxGeometry x="41" y="230" width="50" height="41" as="geometry"/>
                </mxCell>
                <mxCell id="11" style="edgeStyle=elbowEdgeStyle;html=1;entryX=0.97;entryY=0.65;entryDx=0;entryDy=0;entryPerimeter=0;" parent="1" source="10" target="4" edge="1">
                    <mxGeometry relative="1" as="geometry">
                        <Array as="points">
                            <mxPoint x="310" y="406"/>
                            <mxPoint x="210" y="406"/>
                            <mxPoint x="240" y="400"/>
                        </Array>
                    </mxGeometry>
                </mxCell>
                <mxCell id="12" value="Refresh data" style="edgeLabel;html=1;align=center;verticalAlign=middle;resizable=0;points=[];" parent="11" vertex="1" connectable="0">
                    <mxGeometry x="-0.1705" y="-4" relative="1" as="geometry">
                        <mxPoint x="-29" y="-1" as="offset"/>
                    </mxGeometry>
                </mxCell>
            </root>
        </mxGraphModel>
    </diagram>
</mxfile>
